<svg width="204" height="56" viewBox="0 0 204 56" fill="none" xmlns="http://www.w3.org/2000/svg">
<g clip-path="url(#clip0_1_78)">
<path d="M203.992 49.0187H0.0322266V55.2892H203.992V49.0187Z" fill="#FFA3B5"/>
<path d="M14.9785 0.348328L29.5361 36.4776H37.8767L23.3191 0.348328H14.9785Z" fill="#F9423A"/>
<path d="M12.0587 18.6307H5.78818V24.4189H0V30.6894H5.78818V36.4776H12.0587V30.6894H17.8536V24.4189H12.0587V18.6307Z" fill="#F9423A"/>
<path d="M66.885 14.8791C61.1571 13.4589 59.422 12.3535 59.422 10.203C59.422 8.20663 61.5255 6.73278 64.3124 6.73278C68.8881 6.73278 73.1421 9.67377 73.1421 9.67377L76.82 4.04637C76.5587 3.83869 71.7219 0 64.2522 0C56.7825 0 51.5302 4.41483 51.5302 11.0404C51.5302 16.3999 55.1612 19.6088 62.8319 21.5047C68.5598 22.925 70.2949 24.0303 70.2949 26.2344C70.2949 28.7064 68.0841 30.1803 64.4598 30.1803C58.9932 30.1803 54.5248 25.9731 54.5248 25.9731L50.2104 31.4934C50.2104 31.4934 55.7307 36.9064 64.1919 36.9064C72.6531 36.9064 78.1733 32.7528 78.1733 25.7119C78.1733 19.984 74.9174 16.8822 66.8716 14.8791" fill="white"/>
<path d="M179.723 36.5311H204.001V29.7849H187.534V21.6587H201.402V14.9594H187.534V7.15474H204.001V0.401855H179.723V36.5311Z" fill="white"/>
<path d="M97.7221 6.93376V36.6317H90.3127V6.93376H81.6572V0.46225H106.378V6.93376H97.7221Z" fill="white"/>
<path d="M131.159 36.5245L128.935 27.6882H117.875L115.65 36.5245H108.569L118.806 0.448853H128.212L138.448 36.5245H131.159ZM125.117 13.7134L123.964 7.37592H123.127L121.975 13.7134L119.831 22.1411H127.374L125.123 13.7134H125.117Z" fill="white"/>
<path d="M164.87 30.7497H164.053C163.812 32.592 163.001 34.0994 161.621 35.2584C160.234 36.4173 158.365 37.0002 156.014 37.0002C154.305 37.0002 152.684 36.6786 151.15 36.0288C149.616 35.3789 148.263 34.3405 147.104 32.9069C145.945 31.4733 145.014 29.5841 144.31 27.246C143.607 24.9079 143.258 22.0474 143.258 18.6642C143.258 15.2811 143.6 12.4138 144.283 10.0556C144.967 7.69748 145.925 5.77478 147.151 4.29424C148.383 2.807 149.864 1.72172 151.606 1.03839C153.347 0.355061 155.297 0.0133972 157.447 0.0133972C160.656 0.0133972 163.323 0.703424 165.44 2.08348C167.557 3.46353 169.211 5.51351 170.411 8.24012L164.415 11.6635C163.939 10.0489 163.135 8.76937 162.01 7.83147C160.884 6.88687 159.343 6.41792 157.4 6.41792C155.458 6.41792 153.91 7.03425 152.765 8.26692C151.619 9.49959 151.05 11.3486 151.05 13.8139V23.1594C151.05 25.6248 151.632 27.4604 152.791 28.6797C153.95 29.8922 155.558 30.5019 157.608 30.5019C159.45 30.5019 160.978 30.0329 162.19 29.095C163.403 28.1571 164.013 26.7637 164.013 24.9214V22.8178H158.124V16.6678H171.034V36.3905H164.884V30.7564L164.87 30.7497Z" fill="white"/>
</g>
<defs>
<clipPath id="clip0_1_78">
<rect width="204" height="55.2892" fill="white"/>
</clipPath>
</defs>
</svg>
